<mxfile host="app.diagrams.net" modified="2023-04-04T05:47:58.533Z" agent="Mozilla/5.0 (Windows NT 10.0; Win64; x64) AppleWebKit/537.36 (KHTML, like Gecko) Chrome/111.0.0.0 Safari/537.36" etag="3OblPGR_B63jgH0I5aAQ" version="21.1.4" type="github">
  <diagram id="R2lEEEUBdFMjLlhIrx00" name="Page-1">
    <mxGraphModel dx="1035" dy="569" grid="1" gridSize="10" guides="1" tooltips="1" connect="1" arrows="1" fold="1" page="1" pageScale="1" pageWidth="850" pageHeight="1100" math="0" shadow="0" extFonts="Permanent Marker^https://fonts.googleapis.com/css?family=Permanent+Marker">
      <root>
        <mxCell id="0" />
        <mxCell id="1" parent="0" />
        <mxCell id="_isPGR33X5v6_eoj3qIe-1" value="Cliente" style="whiteSpace=wrap;html=1;align=center;" vertex="1" parent="1">
          <mxGeometry x="205" y="210" width="100" height="40" as="geometry" />
        </mxCell>
        <mxCell id="_isPGR33X5v6_eoj3qIe-5" value="" style="endArrow=none;html=1;rounded=0;exitX=0.341;exitY=1.054;exitDx=0;exitDy=0;exitPerimeter=0;" edge="1" parent="1" source="_isPGR33X5v6_eoj3qIe-1" target="_isPGR33X5v6_eoj3qIe-6">
          <mxGeometry relative="1" as="geometry">
            <mxPoint x="305" y="229.5" as="sourcePoint" />
            <mxPoint x="345" y="270" as="targetPoint" />
          </mxGeometry>
        </mxCell>
        <mxCell id="_isPGR33X5v6_eoj3qIe-6" value="tipo_doc" style="ellipse;whiteSpace=wrap;html=1;align=center;fontStyle=4;" vertex="1" parent="1">
          <mxGeometry x="185" y="290" width="90" height="30" as="geometry" />
        </mxCell>
        <mxCell id="_isPGR33X5v6_eoj3qIe-7" value="n_documento" style="ellipse;whiteSpace=wrap;html=1;align=center;fontStyle=4;" vertex="1" parent="1">
          <mxGeometry x="325" y="280" width="90" height="30" as="geometry" />
        </mxCell>
        <mxCell id="_isPGR33X5v6_eoj3qIe-14" value="" style="endArrow=none;html=1;rounded=0;exitX=0;exitY=0;exitDx=0;exitDy=0;" edge="1" parent="1" source="_isPGR33X5v6_eoj3qIe-7">
          <mxGeometry width="50" height="50" relative="1" as="geometry">
            <mxPoint x="305" y="300" as="sourcePoint" />
            <mxPoint x="305" y="250" as="targetPoint" />
          </mxGeometry>
        </mxCell>
        <mxCell id="_isPGR33X5v6_eoj3qIe-20" value="domicilio" style="ellipse;whiteSpace=wrap;html=1;align=center;" vertex="1" parent="1">
          <mxGeometry x="210" y="160" width="90" height="30" as="geometry" />
        </mxCell>
        <mxCell id="_isPGR33X5v6_eoj3qIe-21" value="" style="endArrow=none;html=1;rounded=0;" edge="1" parent="1">
          <mxGeometry width="50" height="50" relative="1" as="geometry">
            <mxPoint x="254.5" y="210" as="sourcePoint" />
            <mxPoint x="254.5" y="190" as="targetPoint" />
          </mxGeometry>
        </mxCell>
        <mxCell id="_isPGR33X5v6_eoj3qIe-22" value="calle" style="ellipse;whiteSpace=wrap;html=1;align=center;" vertex="1" parent="1">
          <mxGeometry x="305" y="90" width="80" height="20" as="geometry" />
        </mxCell>
        <mxCell id="_isPGR33X5v6_eoj3qIe-23" value="nro" style="ellipse;whiteSpace=wrap;html=1;align=center;" vertex="1" parent="1">
          <mxGeometry x="215" y="90" width="80" height="20" as="geometry" />
        </mxCell>
        <mxCell id="_isPGR33X5v6_eoj3qIe-24" value="codigo_p" style="ellipse;whiteSpace=wrap;html=1;align=center;" vertex="1" parent="1">
          <mxGeometry x="115" y="90" width="80" height="20" as="geometry" />
        </mxCell>
        <mxCell id="_isPGR33X5v6_eoj3qIe-25" value="localidad" style="ellipse;whiteSpace=wrap;html=1;align=center;" vertex="1" parent="1">
          <mxGeometry x="105" y="130" width="80" height="20" as="geometry" />
        </mxCell>
        <mxCell id="_isPGR33X5v6_eoj3qIe-26" value="provincia" style="ellipse;whiteSpace=wrap;html=1;align=center;" vertex="1" parent="1">
          <mxGeometry x="315" y="130" width="80" height="20" as="geometry" />
        </mxCell>
        <mxCell id="_isPGR33X5v6_eoj3qIe-27" value="" style="endArrow=none;html=1;rounded=0;entryX=0;entryY=1;entryDx=0;entryDy=0;exitX=1;exitY=0.5;exitDx=0;exitDy=0;" edge="1" parent="1" source="_isPGR33X5v6_eoj3qIe-20" target="_isPGR33X5v6_eoj3qIe-26">
          <mxGeometry width="50" height="50" relative="1" as="geometry">
            <mxPoint x="295" y="170" as="sourcePoint" />
            <mxPoint x="325" y="140" as="targetPoint" />
          </mxGeometry>
        </mxCell>
        <mxCell id="_isPGR33X5v6_eoj3qIe-28" value="" style="endArrow=none;html=1;rounded=0;entryX=0.5;entryY=1;entryDx=0;entryDy=0;" edge="1" parent="1" target="_isPGR33X5v6_eoj3qIe-23">
          <mxGeometry width="50" height="50" relative="1" as="geometry">
            <mxPoint x="250" y="160" as="sourcePoint" />
            <mxPoint x="300" y="140" as="targetPoint" />
          </mxGeometry>
        </mxCell>
        <mxCell id="_isPGR33X5v6_eoj3qIe-29" value="" style="endArrow=none;html=1;rounded=0;entryX=0;entryY=1;entryDx=0;entryDy=0;exitX=1;exitY=0;exitDx=0;exitDy=0;" edge="1" parent="1" source="_isPGR33X5v6_eoj3qIe-20" target="_isPGR33X5v6_eoj3qIe-22">
          <mxGeometry width="50" height="50" relative="1" as="geometry">
            <mxPoint x="285" y="160" as="sourcePoint" />
            <mxPoint x="290" y="110" as="targetPoint" />
          </mxGeometry>
        </mxCell>
        <mxCell id="_isPGR33X5v6_eoj3qIe-30" value="" style="endArrow=none;html=1;rounded=0;exitX=0.233;exitY=0.133;exitDx=0;exitDy=0;exitPerimeter=0;" edge="1" parent="1" source="_isPGR33X5v6_eoj3qIe-20" target="_isPGR33X5v6_eoj3qIe-24">
          <mxGeometry width="50" height="50" relative="1" as="geometry">
            <mxPoint x="225" y="160" as="sourcePoint" />
            <mxPoint x="230" y="115" as="targetPoint" />
          </mxGeometry>
        </mxCell>
        <mxCell id="_isPGR33X5v6_eoj3qIe-31" value="" style="endArrow=none;html=1;rounded=0;entryX=0.663;entryY=0.95;entryDx=0;entryDy=0;entryPerimeter=0;" edge="1" parent="1" target="_isPGR33X5v6_eoj3qIe-25">
          <mxGeometry width="50" height="50" relative="1" as="geometry">
            <mxPoint x="210" y="175" as="sourcePoint" />
            <mxPoint x="160" y="160" as="targetPoint" />
          </mxGeometry>
        </mxCell>
        <mxCell id="_isPGR33X5v6_eoj3qIe-32" value="teléfono" style="ellipse;whiteSpace=wrap;html=1;align=center;" vertex="1" parent="1">
          <mxGeometry x="335" y="180" width="90" height="30" as="geometry" />
        </mxCell>
        <mxCell id="_isPGR33X5v6_eoj3qIe-33" value="" style="endArrow=none;html=1;rounded=0;entryX=0;entryY=1;entryDx=0;entryDy=0;" edge="1" parent="1" target="_isPGR33X5v6_eoj3qIe-32">
          <mxGeometry width="50" height="50" relative="1" as="geometry">
            <mxPoint x="305" y="220" as="sourcePoint" />
            <mxPoint x="350" y="190" as="targetPoint" />
          </mxGeometry>
        </mxCell>
        <mxCell id="_isPGR33X5v6_eoj3qIe-34" value="fecha_nac" style="ellipse;whiteSpace=wrap;html=1;align=center;" vertex="1" parent="1">
          <mxGeometry x="105" y="200" width="80" height="20" as="geometry" />
        </mxCell>
        <mxCell id="_isPGR33X5v6_eoj3qIe-35" value="" style="endArrow=none;html=1;rounded=0;entryX=1;entryY=0.5;entryDx=0;entryDy=0;" edge="1" parent="1" target="_isPGR33X5v6_eoj3qIe-34">
          <mxGeometry width="50" height="50" relative="1" as="geometry">
            <mxPoint x="205" y="220" as="sourcePoint" />
            <mxPoint x="135" y="200" as="targetPoint" />
          </mxGeometry>
        </mxCell>
        <mxCell id="_isPGR33X5v6_eoj3qIe-36" value="edad" style="ellipse;whiteSpace=wrap;html=1;align=center;dashed=1;" vertex="1" parent="1">
          <mxGeometry x="115" y="240" width="70" height="20" as="geometry" />
        </mxCell>
        <mxCell id="_isPGR33X5v6_eoj3qIe-37" value="" style="endArrow=none;html=1;rounded=0;exitX=1;exitY=0;exitDx=0;exitDy=0;" edge="1" parent="1" source="_isPGR33X5v6_eoj3qIe-36">
          <mxGeometry width="50" height="50" relative="1" as="geometry">
            <mxPoint x="145" y="275" as="sourcePoint" />
            <mxPoint x="205" y="235" as="targetPoint" />
          </mxGeometry>
        </mxCell>
        <mxCell id="_isPGR33X5v6_eoj3qIe-38" value="Libro" style="whiteSpace=wrap;html=1;align=center;" vertex="1" parent="1">
          <mxGeometry x="570" y="210" width="100" height="40" as="geometry" />
        </mxCell>
        <mxCell id="_isPGR33X5v6_eoj3qIe-39" value="ISBN" style="ellipse;whiteSpace=wrap;html=1;align=center;fontStyle=4;" vertex="1" parent="1">
          <mxGeometry x="690" y="260" width="90" height="30" as="geometry" />
        </mxCell>
        <mxCell id="_isPGR33X5v6_eoj3qIe-40" value="género" style="ellipse;whiteSpace=wrap;html=1;align=center;" vertex="1" parent="1">
          <mxGeometry x="575" y="140" width="90" height="30" as="geometry" />
        </mxCell>
        <mxCell id="_isPGR33X5v6_eoj3qIe-41" value="titulo" style="ellipse;whiteSpace=wrap;html=1;align=center;" vertex="1" parent="1">
          <mxGeometry x="690" y="170" width="90" height="30" as="geometry" />
        </mxCell>
        <mxCell id="_isPGR33X5v6_eoj3qIe-42" value="" style="endArrow=none;html=1;rounded=0;entryX=0;entryY=1;entryDx=0;entryDy=0;" edge="1" parent="1" target="_isPGR33X5v6_eoj3qIe-41">
          <mxGeometry width="50" height="50" relative="1" as="geometry">
            <mxPoint x="670" y="210" as="sourcePoint" />
            <mxPoint x="730" y="170" as="targetPoint" />
          </mxGeometry>
        </mxCell>
        <mxCell id="_isPGR33X5v6_eoj3qIe-43" value="" style="endArrow=none;html=1;rounded=0;exitX=1;exitY=0.75;exitDx=0;exitDy=0;entryX=0;entryY=0;entryDx=0;entryDy=0;" edge="1" parent="1" source="_isPGR33X5v6_eoj3qIe-38" target="_isPGR33X5v6_eoj3qIe-39">
          <mxGeometry width="50" height="50" relative="1" as="geometry">
            <mxPoint x="680" y="220" as="sourcePoint" />
            <mxPoint x="710" y="270" as="targetPoint" />
          </mxGeometry>
        </mxCell>
        <mxCell id="_isPGR33X5v6_eoj3qIe-44" value="" style="endArrow=none;html=1;rounded=0;exitX=0.5;exitY=0;exitDx=0;exitDy=0;" edge="1" parent="1" source="_isPGR33X5v6_eoj3qIe-38">
          <mxGeometry width="50" height="50" relative="1" as="geometry">
            <mxPoint x="598" y="265" as="sourcePoint" />
            <mxPoint x="620" y="170" as="targetPoint" />
          </mxGeometry>
        </mxCell>
        <mxCell id="_isPGR33X5v6_eoj3qIe-45" value="Proovedor" style="whiteSpace=wrap;html=1;align=center;" vertex="1" parent="1">
          <mxGeometry x="570" y="400" width="100" height="40" as="geometry" />
        </mxCell>
        <mxCell id="_isPGR33X5v6_eoj3qIe-46" value="CUIT" style="ellipse;whiteSpace=wrap;html=1;align=center;fontStyle=4;" vertex="1" parent="1">
          <mxGeometry x="730" y="405" width="90" height="30" as="geometry" />
        </mxCell>
        <mxCell id="_isPGR33X5v6_eoj3qIe-47" value="nombre" style="ellipse;whiteSpace=wrap;html=1;align=center;" vertex="1" parent="1">
          <mxGeometry x="80" y="280" width="80" height="30" as="geometry" />
        </mxCell>
        <mxCell id="_isPGR33X5v6_eoj3qIe-48" value="" style="endArrow=none;html=1;rounded=0;" edge="1" parent="1">
          <mxGeometry relative="1" as="geometry">
            <mxPoint x="205" y="250" as="sourcePoint" />
            <mxPoint x="157" y="290" as="targetPoint" />
          </mxGeometry>
        </mxCell>
        <mxCell id="_isPGR33X5v6_eoj3qIe-49" style="edgeStyle=orthogonalEdgeStyle;rounded=0;orthogonalLoop=1;jettySize=auto;html=1;exitX=0.5;exitY=1;exitDx=0;exitDy=0;" edge="1" parent="1" source="_isPGR33X5v6_eoj3qIe-47" target="_isPGR33X5v6_eoj3qIe-47">
          <mxGeometry relative="1" as="geometry" />
        </mxCell>
        <mxCell id="_isPGR33X5v6_eoj3qIe-50" style="edgeStyle=orthogonalEdgeStyle;rounded=0;orthogonalLoop=1;jettySize=auto;html=1;exitX=0.5;exitY=1;exitDx=0;exitDy=0;" edge="1" parent="1">
          <mxGeometry relative="1" as="geometry">
            <mxPoint x="130" y="320" as="sourcePoint" />
            <mxPoint x="130" y="320" as="targetPoint" />
          </mxGeometry>
        </mxCell>
        <mxCell id="_isPGR33X5v6_eoj3qIe-51" value="nombre" style="ellipse;whiteSpace=wrap;html=1;align=center;" vertex="1" parent="1">
          <mxGeometry x="710" y="460" width="80" height="30" as="geometry" />
        </mxCell>
        <mxCell id="_isPGR33X5v6_eoj3qIe-53" value="domicilio" style="ellipse;whiteSpace=wrap;html=1;align=center;" vertex="1" parent="1">
          <mxGeometry x="575" y="470" width="90" height="30" as="geometry" />
        </mxCell>
        <mxCell id="_isPGR33X5v6_eoj3qIe-54" value="calle" style="ellipse;whiteSpace=wrap;html=1;align=center;" vertex="1" parent="1">
          <mxGeometry x="675" y="550" width="80" height="20" as="geometry" />
        </mxCell>
        <mxCell id="_isPGR33X5v6_eoj3qIe-55" value="nro" style="ellipse;whiteSpace=wrap;html=1;align=center;" vertex="1" parent="1">
          <mxGeometry x="585" y="550" width="80" height="20" as="geometry" />
        </mxCell>
        <mxCell id="_isPGR33X5v6_eoj3qIe-56" value="codigo_p" style="ellipse;whiteSpace=wrap;html=1;align=center;" vertex="1" parent="1">
          <mxGeometry x="485" y="550" width="80" height="20" as="geometry" />
        </mxCell>
        <mxCell id="_isPGR33X5v6_eoj3qIe-57" value="localidad" style="ellipse;whiteSpace=wrap;html=1;align=center;" vertex="1" parent="1">
          <mxGeometry x="480" y="510" width="80" height="20" as="geometry" />
        </mxCell>
        <mxCell id="_isPGR33X5v6_eoj3qIe-58" value="provincia" style="ellipse;whiteSpace=wrap;html=1;align=center;" vertex="1" parent="1">
          <mxGeometry x="690" y="510" width="80" height="20" as="geometry" />
        </mxCell>
        <mxCell id="_isPGR33X5v6_eoj3qIe-60" value="" style="endArrow=none;html=1;rounded=0;exitX=0.5;exitY=1;exitDx=0;exitDy=0;" edge="1" parent="1" source="_isPGR33X5v6_eoj3qIe-45">
          <mxGeometry width="50" height="50" relative="1" as="geometry">
            <mxPoint x="619" y="460" as="sourcePoint" />
            <mxPoint x="620" y="470" as="targetPoint" />
            <Array as="points">
              <mxPoint x="620" y="450" />
            </Array>
          </mxGeometry>
        </mxCell>
        <mxCell id="_isPGR33X5v6_eoj3qIe-61" value="" style="endArrow=none;html=1;rounded=0;" edge="1" parent="1">
          <mxGeometry width="50" height="50" relative="1" as="geometry">
            <mxPoint x="624.41" y="550" as="sourcePoint" />
            <mxPoint x="620" y="500" as="targetPoint" />
          </mxGeometry>
        </mxCell>
        <mxCell id="_isPGR33X5v6_eoj3qIe-62" value="" style="endArrow=none;html=1;rounded=0;exitX=0;exitY=0;exitDx=0;exitDy=0;entryX=0.765;entryY=1.014;entryDx=0;entryDy=0;entryPerimeter=0;" edge="1" parent="1" source="_isPGR33X5v6_eoj3qIe-54" target="_isPGR33X5v6_eoj3qIe-53">
          <mxGeometry width="50" height="50" relative="1" as="geometry">
            <mxPoint x="654.41" y="540" as="sourcePoint" />
            <mxPoint x="650" y="490" as="targetPoint" />
          </mxGeometry>
        </mxCell>
        <mxCell id="_isPGR33X5v6_eoj3qIe-63" value="" style="endArrow=none;html=1;rounded=0;exitX=0;exitY=0.5;exitDx=0;exitDy=0;entryX=1;entryY=1;entryDx=0;entryDy=0;" edge="1" parent="1" source="_isPGR33X5v6_eoj3qIe-58" target="_isPGR33X5v6_eoj3qIe-53">
          <mxGeometry width="50" height="50" relative="1" as="geometry">
            <mxPoint x="707" y="530" as="sourcePoint" />
            <mxPoint x="665" y="477" as="targetPoint" />
          </mxGeometry>
        </mxCell>
        <mxCell id="_isPGR33X5v6_eoj3qIe-65" value="" style="endArrow=none;html=1;rounded=0;exitX=0;exitY=1;exitDx=0;exitDy=0;" edge="1" parent="1" source="_isPGR33X5v6_eoj3qIe-53">
          <mxGeometry width="50" height="50" relative="1" as="geometry">
            <mxPoint x="630" y="530" as="sourcePoint" />
            <mxPoint x="560" y="517" as="targetPoint" />
          </mxGeometry>
        </mxCell>
        <mxCell id="_isPGR33X5v6_eoj3qIe-66" value="" style="endArrow=none;html=1;rounded=0;exitX=0.229;exitY=0.975;exitDx=0;exitDy=0;entryX=1;entryY=0;entryDx=0;entryDy=0;exitPerimeter=0;" edge="1" parent="1" source="_isPGR33X5v6_eoj3qIe-53" target="_isPGR33X5v6_eoj3qIe-56">
          <mxGeometry width="50" height="50" relative="1" as="geometry">
            <mxPoint x="597" y="505" as="sourcePoint" />
            <mxPoint x="570" y="527" as="targetPoint" />
          </mxGeometry>
        </mxCell>
        <mxCell id="_isPGR33X5v6_eoj3qIe-68" value="" style="endArrow=none;html=1;rounded=0;exitX=0.026;exitY=0.21;exitDx=0;exitDy=0;entryX=1;entryY=1;entryDx=0;entryDy=0;exitPerimeter=0;" edge="1" parent="1" source="_isPGR33X5v6_eoj3qIe-51" target="_isPGR33X5v6_eoj3qIe-45">
          <mxGeometry width="50" height="50" relative="1" as="geometry">
            <mxPoint x="725" y="460" as="sourcePoint" />
            <mxPoint x="705" y="390" as="targetPoint" />
          </mxGeometry>
        </mxCell>
        <mxCell id="_isPGR33X5v6_eoj3qIe-69" value="" style="endArrow=none;html=1;rounded=0;entryX=1;entryY=0.5;entryDx=0;entryDy=0;" edge="1" parent="1" target="_isPGR33X5v6_eoj3qIe-45">
          <mxGeometry width="50" height="50" relative="1" as="geometry">
            <mxPoint x="730" y="420" as="sourcePoint" />
            <mxPoint x="695" y="350" as="targetPoint" />
          </mxGeometry>
        </mxCell>
        <mxCell id="_isPGR33X5v6_eoj3qIe-70" value="" style="endArrow=none;html=1;rounded=0;" edge="1" parent="1">
          <mxGeometry relative="1" as="geometry">
            <mxPoint x="305" y="229.41000000000003" as="sourcePoint" />
            <mxPoint x="440" y="230" as="targetPoint" />
          </mxGeometry>
        </mxCell>
        <mxCell id="_isPGR33X5v6_eoj3qIe-71" value="Lee" style="shape=rhombus;perimeter=rhombusPerimeter;whiteSpace=wrap;html=1;align=center;" vertex="1" parent="1">
          <mxGeometry x="395" y="210" width="105" height="40" as="geometry" />
        </mxCell>
        <mxCell id="_isPGR33X5v6_eoj3qIe-72" value="" style="endArrow=none;html=1;rounded=0;entryX=0;entryY=0.5;entryDx=0;entryDy=0;" edge="1" parent="1" target="_isPGR33X5v6_eoj3qIe-38">
          <mxGeometry relative="1" as="geometry">
            <mxPoint x="495" y="229.41" as="sourcePoint" />
            <mxPoint x="565" y="229.41" as="targetPoint" />
          </mxGeometry>
        </mxCell>
        <mxCell id="_isPGR33X5v6_eoj3qIe-73" value="Es provisto" style="shape=rhombus;perimeter=rhombusPerimeter;whiteSpace=wrap;html=1;align=center;" vertex="1" parent="1">
          <mxGeometry x="575" y="300" width="90" height="50" as="geometry" />
        </mxCell>
        <mxCell id="_isPGR33X5v6_eoj3qIe-75" value="" style="endArrow=none;html=1;rounded=0;exitX=0.5;exitY=1;exitDx=0;exitDy=0;" edge="1" parent="1" source="_isPGR33X5v6_eoj3qIe-73">
          <mxGeometry relative="1" as="geometry">
            <mxPoint x="619.41" y="310" as="sourcePoint" />
            <mxPoint x="619.41" y="400" as="targetPoint" />
          </mxGeometry>
        </mxCell>
        <mxCell id="_isPGR33X5v6_eoj3qIe-76" value="" style="endArrow=none;html=1;rounded=0;exitX=0.5;exitY=1;exitDx=0;exitDy=0;" edge="1" parent="1">
          <mxGeometry relative="1" as="geometry">
            <mxPoint x="620" y="250" as="sourcePoint" />
            <mxPoint x="619.41" y="300" as="targetPoint" />
          </mxGeometry>
        </mxCell>
        <mxCell id="_isPGR33X5v6_eoj3qIe-77" value="N" style="text;strokeColor=none;fillColor=none;align=left;verticalAlign=middle;spacingLeft=4;spacingRight=4;overflow=hidden;points=[[0,0.5],[1,0.5]];portConstraint=eastwest;rotatable=0;whiteSpace=wrap;html=1;" vertex="1" parent="1">
          <mxGeometry x="600" y="250" width="20" height="30" as="geometry" />
        </mxCell>
        <mxCell id="_isPGR33X5v6_eoj3qIe-79" value="1" style="text;strokeColor=none;fillColor=none;align=left;verticalAlign=middle;spacingLeft=4;spacingRight=4;overflow=hidden;points=[[0,0.5],[1,0.5]];portConstraint=eastwest;rotatable=0;whiteSpace=wrap;html=1;" vertex="1" parent="1">
          <mxGeometry x="620" y="370" width="20" height="35" as="geometry" />
        </mxCell>
        <mxCell id="_isPGR33X5v6_eoj3qIe-81" value="N" style="text;strokeColor=none;fillColor=none;align=left;verticalAlign=middle;spacingLeft=4;spacingRight=4;overflow=hidden;points=[[0,0.5],[1,0.5]];portConstraint=eastwest;rotatable=0;whiteSpace=wrap;html=1;" vertex="1" parent="1">
          <mxGeometry x="550" y="210" width="20" height="20" as="geometry" />
        </mxCell>
        <mxCell id="_isPGR33X5v6_eoj3qIe-84" value="N" style="text;strokeColor=none;fillColor=none;align=left;verticalAlign=middle;spacingLeft=4;spacingRight=4;overflow=hidden;points=[[0,0.5],[1,0.5]];portConstraint=eastwest;rotatable=0;whiteSpace=wrap;html=1;" vertex="1" parent="1">
          <mxGeometry x="305" y="230" width="20" height="20" as="geometry" />
        </mxCell>
      </root>
    </mxGraphModel>
  </diagram>
</mxfile>
